<svg xmlns="http://www.w3.org/2000/svg" width="32" height="32" viewBox="0 0 32 32">
    <g fill="none" fill-rule="evenodd">
        <g fill="#000">
            <g transform="translate(-807 -288) translate(807 288)">
                <circle cx="16" cy="16" r="16" fill-opacity=".04"/>
                <path fill-opacity=".8" fill-rule="nonzero" d="M14.465 9.5l.092.008c.151.026.286.115.368.247l2.232 4.013 1.001-1.55.056-.073c.101-.115.247-.182.402-.183.183.003.357.097.461.252l5.537 8.612.045.087c.062.15.054.32-.025.466-.095.174-.278.282-.476.282l-13.463.002.003-.001H7.542l-.097-.01c-.158-.028-.297-.126-.377-.27-.096-.172-.09-.383.014-.55l6.923-11.077.056-.074c.102-.114.248-.181.404-.181zm4.163 4.02L16.6 16.662l-2.515 3.913 9.078.003-4.536-7.056zm-5.835 7.054l3.507-5.478.199-.309-2.023-3.738-5.955 9.528 3.098-.002 1.174-.001z"/>
            </g>
        </g>
    </g>
</svg>
