<svg width="18" height="18" viewBox="0 0 18 18" fill="none"
    xmlns="http://www.w3.org/2000/svg">
    <g id="caret">
        <path id="Vector" d="M15.0228 12.2105C14.9706 12.2628 14.9085 12.3043 14.8402 12.3326C14.7719 12.3609 14.6987 12.3754 14.6248 12.3754C14.5509 12.3754 14.4777 12.3609 14.4094 12.3326C14.3411 12.3043 14.2791 12.2628 14.2269 12.2105L8.99982 6.98273L3.77279 12.2105C3.66724 12.316 3.52409 12.3753 3.37482 12.3753C3.22556 12.3753 3.0824 12.316 2.97686 12.2105C2.87131 12.1049 2.81201 11.9618 2.81201 11.8125C2.81201 11.6632 2.87131 11.5201 2.97686 11.4145L8.60186 5.78953C8.6541 5.73723 8.71613 5.69574 8.78442 5.66744C8.85271 5.63913 8.9259 5.62456 8.99982 5.62456C9.07375 5.62456 9.14694 5.63913 9.21523 5.66744C9.28351 5.69574 9.34555 5.73723 9.39779 5.78953L15.0228 11.4145C15.0751 11.4668 15.1166 11.5288 15.1449 11.5971C15.1732 11.6654 15.1878 11.7386 15.1878 11.8125C15.1878 11.8864 15.1732 11.9596 15.1449 12.0279C15.1166 12.0962 15.0751 12.1582 15.0228 12.2105Z" fill="#031F39"/>
    </g>
</svg>
