<?xml version="1.0" encoding="UTF-8"?> <svg xmlns="http://www.w3.org/2000/svg" width="22" height="22" viewBox="0 0 22 22" fill="none"><path fill-rule="evenodd" clip-rule="evenodd" d="M11 1.95499C6.0046 1.95499 1.95502 6.00457 1.95502 11C1.95502 15.9954 6.0046 20.045 11 20.045C15.9954 20.045 20.045 15.9954 20.045 11C20.045 6.00457 15.9954 1.95499 11 1.95499ZM0.455017 11C0.455017 5.17614 5.17617 0.454987 11 0.454987C16.8239 0.454987 21.545 5.17614 21.545 11C21.545 16.8238 16.8239 21.545 11 21.545C5.17617 21.545 0.455017 16.8238 0.455017 11Z" fill="#2A5BD7"></path><path fill-rule="evenodd" clip-rule="evenodd" d="M15.5697 6.14742C15.9301 6.35158 16.0567 6.80925 15.8526 7.16965L11.4429 14.954C11.1615 15.4516 10.6707 15.8739 10.0329 15.9319C9.38717 15.9906 8.84602 15.6581 8.49437 15.2185L8.48158 15.2025L6.20181 12.1874C5.95197 11.857 6.01726 11.3866 6.34764 11.1368C6.67802 10.8869 7.14839 10.9522 7.39823 11.2826L9.67105 14.2881C9.73187 14.3625 9.78666 14.4017 9.82418 14.4204C9.85976 14.4382 9.88208 14.4394 9.89712 14.4381C9.91909 14.4361 10.0285 14.4081 10.1371 14.2159L14.5474 6.43032C14.7516 6.06992 15.2093 5.94326 15.5697 6.14742Z" fill="#2A5BD7"></path></svg> 