<?xml version="1.0" encoding="UTF-8"?> <svg xmlns="http://www.w3.org/2000/svg" width="24" height="24" viewBox="0 0 24 24" fill="none"><g id="checked"><g id="vector"><path fill-rule="evenodd" clip-rule="evenodd" d="M12.0001 2.955C7.00466 2.955 2.95508 7.00459 2.95508 12C2.95508 16.9954 7.00466 21.045 12.0001 21.045C16.9955 21.045 21.0451 16.9954 21.0451 12C21.0451 7.00459 16.9955 2.955 12.0001 2.955ZM1.45508 12C1.45508 6.17616 6.17624 1.455 12.0001 1.455C17.8239 1.455 22.5451 6.17616 22.5451 12C22.5451 17.8238 17.8239 22.545 12.0001 22.545C6.17624 22.545 1.45508 17.8238 1.45508 12Z" fill="#56575B"></path><path fill-rule="evenodd" clip-rule="evenodd" d="M16.5697 7.14743C16.9301 7.35159 17.0568 7.80926 16.8526 8.16967L12.443 15.954C12.1615 16.4516 11.6707 16.8739 11.033 16.9319C10.3872 16.9906 9.84608 16.6581 9.49443 16.2185L9.48165 16.2025L7.20187 13.1874C6.95203 12.857 7.01732 12.3866 7.3477 12.1368C7.67808 11.887 8.14845 11.9522 8.39829 12.2826L10.6711 15.2881C10.7319 15.3625 10.7867 15.4017 10.8242 15.4204C10.8598 15.4382 10.8821 15.4394 10.8972 15.4381C10.9191 15.4361 11.0286 15.4081 11.1372 15.216L15.5475 7.43034C15.7517 7.06993 16.2093 6.94327 16.5697 7.14743Z" fill="#56575B"></path></g></g></svg> 