<svg width="56" height="56" viewBox="0 0 56 56" fill="none" xmlns="http://www.w3.org/2000/svg">
<path d="M1 28C1 22.3613 1.00121 18.2076 1.33193 14.9566C1.66094 11.7223 2.3078 9.49254 3.52796 7.66645C4.62233 6.02859 6.02859 4.62233 7.66645 3.52796C9.49254 2.3078 11.7223 1.66094 14.9566 1.33193C18.2076 1.00121 22.3613 1 28 1C33.6387 1 37.7924 1.00121 41.0434 1.33193C44.2777 1.66094 46.5075 2.3078 48.3336 3.52796C49.9714 4.62233 51.3777 6.02859 52.472 7.66645C53.6922 9.49254 54.3391 11.7223 54.6681 14.9566C54.9988 18.2076 55 22.3613 55 28C55 33.6387 54.9988 37.7924 54.6681 41.0434C54.3391 44.2777 53.6922 46.5075 52.472 48.3336C51.3777 49.9714 49.9714 51.3777 48.3336 52.472C46.5075 53.6922 44.2777 54.3391 41.0434 54.6681C37.7924 54.9988 33.6387 55 28 55C22.3613 55 18.2076 54.9988 14.9566 54.6681C11.7223 54.3391 9.49254 53.6922 7.66645 52.472C6.02859 51.3777 4.62233 49.9714 3.52796 48.3336C2.3078 46.5075 1.66094 44.2777 1.33193 41.0434C1.00121 37.7924 1 33.6387 1 28Z" fill="#D6D2C9"/>
<path d="M1 28C1 22.3613 1.00121 18.2076 1.33193 14.9566C1.66094 11.7223 2.3078 9.49254 3.52796 7.66645C4.62233 6.02859 6.02859 4.62233 7.66645 3.52796C9.49254 2.3078 11.7223 1.66094 14.9566 1.33193C18.2076 1.00121 22.3613 1 28 1C33.6387 1 37.7924 1.00121 41.0434 1.33193C44.2777 1.66094 46.5075 2.3078 48.3336 3.52796C49.9714 4.62233 51.3777 6.02859 52.472 7.66645C53.6922 9.49254 54.3391 11.7223 54.6681 14.9566C54.9988 18.2076 55 22.3613 55 28C55 33.6387 54.9988 37.7924 54.6681 41.0434C54.3391 44.2777 53.6922 46.5075 52.472 48.3336C51.3777 49.9714 49.9714 51.3777 48.3336 52.472C46.5075 53.6922 44.2777 54.3391 41.0434 54.6681C37.7924 54.9988 33.6387 55 28 55C22.3613 55 18.2076 54.9988 14.9566 54.6681C11.7223 54.3391 9.49254 53.6922 7.66645 52.472C6.02859 51.3777 4.62233 49.9714 3.52796 48.3336C2.3078 46.5075 1.66094 44.2777 1.33193 41.0434C1.00121 37.7924 1 33.6387 1 28Z" stroke="#031F39" stroke-width="2"/>
<path d="M25.8046 36.3383C27.5751 34.0847 29.5226 31.8311 32.7449 29.8548H17.2V26.1797H32.7449C29.558 24.2035 27.5751 21.9152 25.8046 19.6616L28.8498 17.2C31.5056 20.4244 34.3738 23.6141 38.8 26.1104V29.9242C34.3738 32.4205 31.5056 35.5756 28.8498 38.7999L25.8046 36.3383Z" fill="#031F39"/>
</svg>
