<svg width="24" height="25" viewBox="0 0 24 25" fill="none" xmlns="http://www.w3.org/2000/svg">
<g id="globe">
<path id="Vector" d="M12 2.75C10.0716 2.75 8.18657 3.32183 6.58319 4.39317C4.97982 5.46451 3.73013 6.98726 2.99218 8.76884C2.25422 10.5504 2.06114 12.5108 2.43735 14.4021C2.81355 16.2934 3.74215 18.0307 5.10571 19.3943C6.46928 20.7579 8.20656 21.6865 10.0979 22.0627C11.9892 22.4389 13.9496 22.2458 15.7312 21.5078C17.5127 20.7699 19.0355 19.5202 20.1068 17.9168C21.1782 16.3134 21.75 14.4284 21.75 12.5C21.747 9.91505 20.7188 7.43683 18.891 5.609C17.0632 3.78116 14.585 2.75298 12 2.75ZM20.25 12.5C20.2507 13.2608 20.1456 14.0181 19.9378 14.75H16.3275C16.5575 13.2588 16.5575 11.7412 16.3275 10.25H19.9378C20.1456 10.9819 20.2507 11.7392 20.25 12.5ZM9.5625 16.25H14.4375C13.9572 17.8237 13.1235 19.2667 12 20.4688C10.877 19.2664 10.0433 17.8235 9.5625 16.25ZM9.19688 14.75C8.93939 13.2611 8.93939 11.7389 9.19688 10.25H14.8106C15.0681 11.7389 15.0681 13.2611 14.8106 14.75H9.19688ZM3.75 12.5C3.74935 11.7392 3.85442 10.9819 4.06219 10.25H7.6725C7.4425 11.7412 7.4425 13.2588 7.6725 14.75H4.06219C3.85442 14.0181 3.74935 13.2608 3.75 12.5ZM14.4375 8.75H9.5625C10.0428 7.17632 10.8765 5.7333 12 4.53125C13.1231 5.73361 13.9567 7.17653 14.4375 8.75ZM19.3434 8.75H16.0041C15.5832 7.20585 14.8738 5.75532 13.9134 4.475C15.0738 4.75375 16.1602 5.2801 17.098 6.01799C18.0359 6.75588 18.8032 7.68784 19.3472 8.75H19.3434ZM10.0866 4.475C9.12619 5.75532 8.41683 7.20585 7.99594 8.75H4.65282C5.19682 7.68784 5.96407 6.75588 6.90196 6.01799C7.83985 5.2801 8.92621 4.75375 10.0866 4.475ZM4.65282 16.25H7.99594C8.41683 17.7941 9.12619 19.2447 10.0866 20.525C8.92621 20.2463 7.83985 19.7199 6.90196 18.982C5.96407 18.2441 5.19682 17.3122 4.65282 16.25ZM13.9134 20.525C14.8738 19.2447 15.5832 17.7941 16.0041 16.25H19.3472C18.8032 17.3122 18.0359 18.2441 17.098 18.982C16.1602 19.7199 15.0738 20.2463 13.9134 20.525Z" fill="#031F39"/>
</g>
</svg>
