<svg width="20" height="20" viewBox="0 0 20 20" fill="none" xmlns="http://www.w3.org/2000/svg">
<g id="check">
<path id="Vector" d="M17.9425 6.06718L7.94254 16.0672C7.88449 16.1253 7.81556 16.1714 7.73969 16.2028C7.66381 16.2343 7.58248 16.2505 7.50035 16.2505C7.41821 16.2505 7.33688 16.2343 7.26101 16.2028C7.18514 16.1714 7.11621 16.1253 7.05816 16.0672L2.68316 11.6922C2.56588 11.5749 2.5 11.4158 2.5 11.25C2.5 11.0841 2.56588 10.9251 2.68316 10.8078C2.80044 10.6905 2.9595 10.6246 3.12535 10.6246C3.2912 10.6246 3.45026 10.6905 3.56753 10.8078L7.50035 14.7414L17.0582 5.18281C17.1754 5.06553 17.3345 4.99965 17.5003 4.99965C17.6662 4.99965 17.8253 5.06553 17.9425 5.18281C18.0598 5.30008 18.1257 5.45914 18.1257 5.625C18.1257 5.79085 18.0598 5.94991 17.9425 6.06718Z" fill="#031F39"/>
</g>
</svg>
